<?xml version="1.0" encoding="utf-8"?>
<!-- Generator: Adobe Illustrator 21.0.0, SVG Export Plug-In . SVG Version: 6.00 Build 0)  -->
<svg version="1.1" id="Layer_1" xmlns="http://www.w3.org/2000/svg" xmlns:xlink="http://www.w3.org/1999/xlink" x="0px" y="0px"
	 viewBox="0 0 246.2 495" style="enable-background:new 0 0 246.2 495;" xml:space="preserve">
<style type="text/css">
	.st0{display:none;fill:#FFEDAF;stroke:#000000;stroke-miterlimit:10;}
	.st1{fill:#D1CCCC;}
	.st2{fill:#D1CCCC;stroke:#000000;stroke-miterlimit:10;}
	.st3{fill:#F9F9F9;stroke:#000000;stroke-miterlimit:10;}
	.st4{fill:#FF776D;stroke:#000000;stroke-miterlimit:10;}
	.st5{fill:none;stroke:#B71616;stroke-miterlimit:10;}
	.st6{fill:#FFEDAF;stroke:#000000;stroke-miterlimit:10;}
	.st7{fill:none;stroke:#000000;stroke-miterlimit:10;}
	.st8{fill:#49545E;stroke:#000000;stroke-miterlimit:10;}
	.st9{fill:#FF776D;}
</style>
<path class="st0" d="M69.6,185.8v24.6c0,5-4.1,9.1-9.1,9.1h-91.8c-5,0-9.1-4.1-9.1-9.1v-26.6"/>
<path class="st1" d="M199.7,456.4h-169c-0.9,0-1.6-0.7-1.6-1.6V28.9c0-18,14.6-14.7,32.7-14.7h137.3c10,0,18.1,8.1,18.1,18.1V439
	C217.1,448.6,209.3,456.4,199.7,456.4z"/>
<path class="st2" d="M125.3,480.6c-25.7-0.1-43.5-1.8-45.6-2c-34.3-3.7-57.4-20-51.2-60.8l0.8,1.1c-0.1,1.5,0.3-0.4,0.2-0.1
	c-1.2,5-10.3,44.8,10.9,61c17.4,13.3,59.9,15.2,85.1,15.2h-3.9c25.2,0,67.7-1.9,85.1-15.2c21.2-16.2,10.4-61,11.4-58
	c0.1,0.3-0.2-1.4-0.3-2.9l0.8-1.1c6.5,40.8-17.5,57.1-53.3,60.8c-2.2,0.2-20.8,2.2-47.5,2.2"/>
<path class="st3" d="M45.1,181.3L44,294.9c0,1.1-1,2-2.2,2.1l-8.4,0.7c-1,0.1-1.8-0.7-1.8-1.7V178.3c0-0.2,0.2-0.4,0.5-0.4l10.3,0.8
	C43.9,178.8,45.1,179.9,45.1,181.3z"/>
<path class="st3" d="M44.1,66.8v94.3c0,3.2,0.7,5.9-2,6.7l-8.3-0.1c-0.9,0-1.7-0.8-1.7-1.9V60.2c0-1.3,1.1-2.2,2.1-1.8l5.1,1.9
	C42,60.8,44.1,63.6,44.1,66.8z"/>
<path class="st3" d="M33.3,415.8c1.3,0,2.4-1.1,2.7-2.5l9-33.5c0.1-0.6,0-71,0-71c0-1.5-1.4-2.4-2.5-1.7l-7.3,5.9
	c-2,1.6-3.1,4.1-3.1,6.8l0.9,96L33.3,415.8z"/>
<path class="st3" d="M200.7,181.3l1.1,113.6c0,1.1,1,2,2.2,2.1l8.4,0.7c1,0.1,1.8-0.7,1.8-1.7V178.3c0-0.2-0.2-0.4-0.5-0.4
	l-10.3,0.8C201.8,178.8,200.7,179.9,200.7,181.3z"/>
<path class="st3" d="M201.6,66.8v94.3c0,3.2-0.7,5.9,2,6.7l8.3-0.1c0.9,0,1.7-0.8,1.7-1.9V60.2c0-1.3-1.1-2.2-2.1-1.8l-5.1,1.9
	C203.7,60.8,201.6,63.6,201.6,66.8z"/>
<path class="st3" d="M212.4,415.8c-1.3,0-2.4-1.1-2.7-2.5l-9-33.5c-0.1-0.6,0-71,0-71c0-1.5,1.4-2.4,2.5-1.7l7.3,5.9
	c2,1.6,3.1,4.1,3.1,6.8l-0.9,96L212.4,415.8z"/>
<path class="st4" d="M124.1,36.8c-31-0.6-59.4-0.4-71,3l-2,327v13c0,0,28.4,4.7,73,5"/>
<path class="st4" d="M122.1,36.8c31-0.6,59.4-0.4,71,3l2,327v13c0,0-28.4,4.7-73,5"/>
<path class="st5" d="M123.3,435.3c-0.9,0,0.2,0-0.7,0"/>
<path class="st3" d="M122.6,435.3c-31.7-0.1-63.4-3.6-81.5-13.5l9-34.5c0,0,31.3,3.5,73.2,4.1"/>
<path class="st3" d="M122.8,435.3c31.7-0.1,63.4-3.6,81.5-13.5l-9-34.5c0,0-31.3,3.5-73.2,4.1"/>
<path class="st5" d="M29.1,497.8"/>
<path class="st6" d="M122.1,326.6c74.5-115.6,30-246.1,11.4-263.8c-1.4-1.3-3.2-2-5.1-2l-4-0.1c-0.2,0-0.5,0-0.7,0.1
	c-17.9,3.7-76.8,141-1.9,265.8v0.3c0-0.1,0.1-0.1,0.1-0.2c0,0.1,0.1,0.1,0.1,0.2L122.1,326.6z"/>
<path class="st4" d="M28.1,417.8c-6.1,40.7,16.6,56.9,50.3,60.6c2.1,0.2,19.6,1.9,44.9,2"/>
<path class="st4" d="M218.3,417.8c6.1,40.7-16.6,56.9-50.3,60.6c-2.1,0.2-19.6,1.9-44.9,2"/>
<path class="st7" d="M123.7,32.2c-40.4,0.6-76,1.6-75.5,1.6c-10.4,0.2-20.1-13.4-19-13c0,0-1.5-7,7-12c6.3-3.7,43.8-7.9,87-8.8"/>
<path d="M2.6,369.4c0,0-4.9,5.8-1.3,9.3c3.6,3.5,21.6,8.8,21.6,8.8s9.1-1.7,4.3-4.7C17.1,376.4,5.9,370.9,2.6,369.4z"/>
<path d="M244.1,370.5c0,0,4.3,6.2,0.5,9.4c-3.9,3.2-22.3,6.9-22.3,6.9s-9-2.5-3.9-5.1C229.1,376.2,240.7,371.7,244.1,370.5z"/>
<path class="st7" d="M26.6,425.4c0.6-3.7,1.2-6.5,1.5-7.6c0.3-1.4,1-15.8,1-17.1l-1.9-292.2c0-0.4,1.9-87.6,1.9-87.6"/>
<path class="st7" d="M219.6,423.4c-0.6-3.7-1.2-6.5-1.5-7.6c-0.3-1.4-1-15.8-1-17.1l1.9-292.3c0-0.4-1.9-87.6-1.9-87.6"/>
<path class="st3" d="M123.2,6.8c-39.3,0.2-59.7,5.4-66.1,6c-10,1,3,11,3,11c2,5,20,0,20,0c3.9-1.3,16.1-2,42.5-1.8"/>
<path class="st7" d="M122.1,32.2c40.4,0.6,76,1.6,75.5,1.6c10.4,0.2,20.1-13.4,19-13c0,0,1.5-7-7-12c-6.3-3.7-43.8-7.9-87-8.8"/>
<path class="st3" d="M121.6,6.8c39.3,0.2,59.7,5.4,66.1,6c10,1-3,11-3,11c-2,5-20,0-20,0c-3.9-1.3-16.1-2-42.5-1.8"/>
<line class="st7" x1="44.1" y1="56.8" x2="44.1" y2="42.8"/>
<line class="st7" x1="41.1" y1="55.3" x2="41.1" y2="41.3"/>
<line class="st7" x1="38.1" y1="53.3" x2="38.1" y2="39.3"/>
<line class="st7" x1="35.1" y1="51.3" x2="35.1" y2="37.3"/>
<line class="st7" x1="32.1" y1="49.3" x2="32.1" y2="35.3"/>
<line class="st7" x1="201.1" y1="55.8" x2="201.1" y2="41.8"/>
<line class="st7" x1="204.1" y1="54.3" x2="204.1" y2="40.3"/>
<line class="st7" x1="207.1" y1="52.3" x2="207.1" y2="38.3"/>
<line class="st7" x1="210.1" y1="50.3" x2="210.1" y2="36.3"/>
<line class="st7" x1="213.1" y1="48.3" x2="213.1" y2="34.3"/>
<path class="st8" d="M26,430"/>
<polygon class="st9" points="29.6,22.3 27.9,106.9 29.5,408.7 28.6,420.3 32.6,422.3 31.3,316.3 30.9,170.3 30.9,168.8 31.6,25.3 
	"/>
<polygon class="st9" points="216.9,21.3 218.6,105.9 216.9,407.7 217.9,419.3 213.9,421.3 215.1,315.3 215.5,169.3 215.5,167.8 
	214.9,24.3 "/>
<path class="st9" d="M122.6,2.6V2.3c-0.1-2.8-21.6,0.6-45,1c-26.3,0.5-54,5.4-46,20l22-11l35.6-4.9c0.3,0,0.5-0.1,0.8-0.1l32.6-1
	L122.6,2.6L122.6,2.6z"/>
<path class="st9" d="M122.6,2.6V2.3c0.1-2.8,21.6,0.6,45,1c26.3,0.5,54,5.4,46,20l-22-11L156,7.4c-0.3,0-0.5-0.1-0.8-0.1l-32.6-1
	L122.6,2.6L122.6,2.6z"/>
<path class="st9" d="M216.6,422.3c0,0-88.4,38-186,0l92.5,58L216.6,422.3z"/>
<path class="st7" d="M117.6,480.4"/>
<path class="st7" d="M28.1,417.8"/>
<path class="st6" d="M125.3,90.6c-6.1,15.9,0.4,22.5,0.4,22.5"/>
<path class="st6" d="M125.4,90.5c6.1,16-0.4,22.5-0.4,22.5"/>
<path class="st6" d="M81.4,487.3l-9.5-1.3c-3.1-0.4-5.3-3.3-4.8-6.4l0.4-3l20.7,2.9l-0.4,3C87.3,485.6,84.5,487.8,81.4,487.3z"/>
<path class="st6" d="M165.4,487.7l9.5-1.3c3.1-0.4,5.3-3.3,4.8-6.4l-0.4-3l-20.7,2.9l0.4,3C159.5,486,162.3,488.1,165.4,487.7z"/>
</svg>
