<?xml version="1.0" encoding="utf-8"?>
<!-- Generator: Adobe Illustrator 21.0.0, SVG Export Plug-In . SVG Version: 6.00 Build 0)  -->
<svg version="1.1" id="Layer_1" xmlns="http://www.w3.org/2000/svg" xmlns:xlink="http://www.w3.org/1999/xlink" x="0px" y="0px"
	 viewBox="0 0 258.1 524.3" style="enable-background:new 0 0 258.1 524.3;" xml:space="preserve">
<style type="text/css">
	.st0{display:none;fill:#FFEDAF;stroke:#000000;stroke-miterlimit:10;}
	.st1{fill:#FFFFFF;}
	.st2{fill:#5F6466;stroke:#000000;stroke-miterlimit:10;}
	.st3{fill:#7E878E;}
	.st4{fill:#BFBFBF;stroke:#000000;stroke-miterlimit:10;}
	.st5{fill:#FFEDAF;stroke:#000000;stroke-miterlimit:10;}
	.st6{fill:none;stroke:#B71616;stroke-miterlimit:10;}
	.st7{fill:#FF776D;stroke:#000000;stroke-miterlimit:10;}
	.st8{fill:none;stroke:#000000;stroke-miterlimit:10;}
	.st9{fill:#49545E;stroke:#000000;stroke-miterlimit:10;}
	.st10{fill:#FF776D;}
</style>
<path class="st0" d="M69.1,212.3v24.6c0,5-4.1,9.1-9.1,9.1h-91.8c-5,0-9.1-4.1-9.1-9.1v-26.6"/>
<path class="st1" d="M199.2,482.9h-169c-0.9,0-1.6-0.7-1.6-1.6V55.4c0-18,14.6-14.7,32.7-14.7h137.3c10,0,18.1,8.1,18.1,18.1v406.7
	C216.6,475.1,208.8,482.9,199.2,482.9z"/>
<path class="st2" d="M124.8,507.1c-25.7-0.1-43.5-1.8-45.6-2c-34.3-3.7-57.4-20-51.2-60.8l0.8,1.1c-0.1,1.5,0.3-0.4,0.2-0.1
	c-1.2,5-10.3,44.8,10.9,61c17.4,13.3,59.9,15.2,85.1,15.2h-3.9c25.2,0,67.7-1.9,85.1-15.2c21.2-16.2,10.4-61,11.4-58
	c0.1,0.3-0.2-1.4-0.3-2.9l0.8-1.1c6.5,40.8-17.5,57.1-53.3,60.8c-2.2,0.2-20.8,2.2-47.5,2.2"/>
<g>
	<path class="st3" d="M74.3,511.3c0,0-0.1-0.3-0.1-0.6l0.3-5.5c0-0.3,0.2-0.5,0.3-0.6l15.4,1.7c0,0,0.1,0.3,0.1,0.6l-0.9,5.3
		c0,0.4-0.2,0.6-0.2,0.6L74.3,511.3z"/>
	<path d="M75,505.3l14.8,1.6c0,0,0,0,0,0.1l-0.9,5.3l0,0l0,0v0.1l-14.2-1.5v-0.1l0,0l0,0L75,505.3L75,505.3 M74.7,504.2
		c-0.4,0-0.7,0.4-0.7,1l-0.3,5.4c-0.1,0.6,0.2,1.1,0.5,1.2l14.8,1.6l0,0c0.4,0,0.7-0.4,0.7-1l0.9-5.4c0.1-0.6-0.2-1.1-0.5-1.2
		L74.7,504.2C74.8,504.2,74.7,504.2,74.7,504.2L74.7,504.2z"/>
</g>
<g>
	<path class="st3" d="M155.4,512.9c-0.1,0-0.2-0.2-0.2-0.6l-0.9-5.4c0-0.3,0.1-0.6,0.1-0.6l15.5-1.7c0,0,0.2,0.2,0.2,0.6l0.2,5.4
		c0,0.4-0.1,0.6-0.1,0.6L155.4,512.9z"/>
	<path d="M169.5,505.3C169.5,505.3,169.6,505.3,169.5,505.3l0.3,5.5l0,0l0,0v0.1l-14.2,1.5v-0.1l0,0l0,0l-0.9-5.3v-0.1L169.5,505.3
		 M169.8,504.2L169.8,504.2l-15.5,1.7c-0.4,0-0.6,0.6-0.5,1.2l0.9,5.4c0.1,0.6,0.4,1,0.7,1l0,0l14.8-1.6c0.4,0,0.6-0.5,0.5-1.2
		l-0.3-5.4C170.5,504.7,170.2,504.2,169.8,504.2L169.8,504.2z"/>
</g>
<path class="st4" d="M44.6,207.8l-1.1,113.6c0,1.1-1,2-2.2,2.1l-8.4,0.7c-1,0.1-1.8-0.7-1.8-1.7V204.8c0-0.2,0.2-0.4,0.5-0.4
	l10.3,0.8C43.4,205.3,44.6,206.4,44.6,207.8z"/>
<path class="st4" d="M43.6,93.3v94.3c0,3.2,0.7,5.9-2,6.7l-8.3-0.1c-0.9,0-1.7-0.8-1.7-1.9V86.7c0-1.3,1.1-2.2,2.1-1.8l5.1,1.9
	C41.5,87.3,43.6,90.1,43.6,93.3z"/>
<path class="st4" d="M32.8,442.3c1.3,0,2.4-1.1,2.7-2.5l9-33.5c0.1-0.6,0-71,0-71c0-1.5-1.4-2.4-2.5-1.7l-7.3,5.9
	c-2,1.6-3.1,4.1-3.1,6.8l0.9,96L32.8,442.3z"/>
<path class="st4" d="M200.2,207.8l1.1,113.6c0,1.1,1,2,2.2,2.1l8.4,0.7c1,0.1,1.8-0.7,1.8-1.7V204.8c0-0.2-0.2-0.4-0.5-0.4
	l-10.3,0.8C201.3,205.3,200.2,206.4,200.2,207.8z"/>
<path class="st4" d="M201.1,93.3v94.3c0,3.2-0.7,5.9,2,6.7l8.3-0.1c0.9,0,1.7-0.8,1.7-1.9V86.7c0-1.3-1.1-2.2-2.1-1.8l-5.1,1.9
	C203.2,87.3,201.1,90.1,201.1,93.3z"/>
<path class="st4" d="M211.9,442.3c-1.3,0-2.4-1.1-2.7-2.5l-9-33.5c-0.1-0.6,0-71,0-71c0-1.5,1.4-2.4,2.5-1.7l7.3,5.9
	c2,1.6,3.1,4.1,3.1,6.8l-0.9,96L211.9,442.3z"/>
<path class="st5" d="M122.6,63.3c-31-0.6-59.4-0.4-71,3l-2,327v13c0,0,28.4,4.7,73,5"/>
<path class="st5" d="M122.6,63.3c31-0.6,59.4-0.4,71,3l2,327v13c0,0-28.4,4.7-73,5"/>
<path class="st6" d="M122.8,461.8c-0.9,0,0.2,0-0.7,0"/>
<path class="st4" d="M122.1,461.8c-31.7-0.1-63.4-3.6-81.5-13.5l9-34.5c0,0,31.3,3.5,73.2,4.1"/>
<path class="st4" d="M122.3,461.8c31.7-0.1,63.4-3.6,81.5-13.5l-9-34.5c0,0-31.3,3.5-73.2,4.1"/>
<path class="st6" d="M28.6,524.3"/>
<path class="st7" d="M121.6,353.1c74.5-115.6,30-246.1,11.4-263.8c-1.4-1.3-3.2-2-5.1-2l-4-0.1c-0.2,0-0.5,0-0.7,0.1
	c-17.9,3.7-76.8,141-1.9,265.8v0.3c0-0.1,0.1-0.1,0.1-0.2c0,0.1,0.1,0.1,0.1,0.2L121.6,353.1z"/>
<path class="st7" d="M27.6,444.3c-6.1,40.7,16.6,56.9,50.3,60.6c2.1,0.2,19.6,1.9,44.9,2"/>
<path class="st7" d="M217.8,444.3c6.1,40.7-16.6,56.9-50.3,60.6c-2.1,0.2-19.6,1.9-44.9,2"/>
<path class="st8" d="M123.2,58.7c-40.4,0.6-76,1.6-75.5,1.6c-10.4,0.2-20.1-13.4-19-13c0,0-1.5-7,7-12c6.3-3.7,43.8-7.9,87-8.8"/>
<path d="M3.6,394.3c0,0-5.7,5-2.7,9s20,12,20,12s9.3-0.3,5-4C16.8,403.4,6.6,396.3,3.6,394.3z"/>
<path d="M241.4,394.3c0,0,5.7,5,2.7,9s-20,12-20,12s-9.3-0.3-5-4C228.2,403.4,238.4,396.3,241.4,394.3z"/>
<path class="st8" d="M26.1,451.9c0.6-3.7,1.2-6.5,1.5-7.6c0.3-1.4,1-15.8,1-17.1L26.7,135c0-0.4,1.9-87.6,1.9-87.6"/>
<path class="st8" d="M219.1,449.9c-0.6-3.7-1.2-6.5-1.5-7.6c-0.3-1.4-1-15.8-1-17.1l1.9-292.3c0-0.4-1.9-87.6-1.9-87.6"/>
<path class="st4" d="M122.7,33.3c-39.3,0.2-59.7,5.4-66.1,6c-10,1,3,11,3,11c2,5,20,0,20,0c3.9-1.3,16.1-2,42.5-1.8"/>
<path class="st8" d="M121.6,58.7c40.4,0.6,76,1.6,75.5,1.6c10.4,0.2,20.1-13.4,19-13c0,0,1.5-7-7-12c-6.3-3.7-43.8-7.9-87-8.8"/>
<path class="st4" d="M121.1,33.3c39.3,0.2,59.7,5.4,66.1,6c10,1-3,11-3,11c-2,5-20,0-20,0c-3.9-1.3-16.1-2-42.5-1.8"/>
<line class="st8" x1="43.6" y1="83.3" x2="43.6" y2="69.3"/>
<line class="st8" x1="40.6" y1="81.8" x2="40.6" y2="67.8"/>
<line class="st8" x1="37.6" y1="79.8" x2="37.6" y2="65.8"/>
<line class="st8" x1="34.6" y1="77.8" x2="34.6" y2="63.8"/>
<line class="st8" x1="31.6" y1="75.8" x2="31.6" y2="61.8"/>
<line class="st8" x1="200.6" y1="82.3" x2="200.6" y2="68.3"/>
<line class="st8" x1="203.6" y1="80.8" x2="203.6" y2="66.8"/>
<line class="st8" x1="206.6" y1="78.8" x2="206.6" y2="64.8"/>
<line class="st8" x1="209.6" y1="76.8" x2="209.6" y2="62.8"/>
<line class="st8" x1="212.6" y1="74.8" x2="212.6" y2="60.8"/>
<path class="st9" d="M25.5,456.5"/>
<polygon class="st10" points="29.1,48.8 27.4,133.4 29,435.2 28.1,446.8 32.1,448.8 30.8,342.8 30.4,196.8 30.4,195.3 31.1,51.8 "/>
<polygon class="st10" points="216.4,47.8 218.1,132.4 216.4,434.2 217.4,445.8 213.4,447.8 214.6,341.8 215,195.8 215,194.3 
	214.4,50.8 "/>
<path class="st10" d="M122.1,29.1v-0.3c-0.1-2.8-21.6,0.6-45,1c-26.3,0.5-54,5.4-46,20l22-11l35.6-4.9c0.3,0,0.5-0.1,0.8-0.1l32.6-1
	L122.1,29.1L122.1,29.1z"/>
<path class="st10" d="M122.1,29.1v-0.3c0.1-2.8,21.6,0.6,45,1c26.3,0.5,54,5.4,46,20l-22-11l-35.6-4.9c-0.3,0-0.5-0.1-0.8-0.1
	l-32.6-1L122.1,29.1L122.1,29.1z"/>
<path class="st10" d="M216.1,448.8c0,0-88.4,38-186,0l92.5,58L216.1,448.8z"/>
<path class="st8" d="M117.1,506.9"/>
<path class="st8" d="M27.6,444.3"/>
</svg>
